<mxfile host="Electron" modified="2024-03-24T09:31:06.117Z" agent="Mozilla/5.0 (Windows NT 10.0; Win64; x64) AppleWebKit/537.36 (KHTML, like Gecko) draw.io/21.2.1 Chrome/112.0.5615.87 Electron/24.1.2 Safari/537.36" etag="4JchiCSy7-X0lDeDfwFP" version="21.2.1" type="device">
  <diagram name="第 1 页" id="JZBcgF2szxKGCU19tjdc">
    <mxGraphModel dx="1436" dy="968" grid="1" gridSize="10" guides="1" tooltips="1" connect="1" arrows="1" fold="1" page="1" pageScale="1" pageWidth="3300" pageHeight="2339" math="0" shadow="0">
      <root>
        <mxCell id="0" />
        <mxCell id="1" parent="0" />
        <mxCell id="wKmqKS63HdWNuwRlpOUZ-2" value="4-to-2 encoder" style="rounded=0;whiteSpace=wrap;html=1;" vertex="1" parent="1">
          <mxGeometry x="350" y="230" width="80" height="90" as="geometry" />
        </mxCell>
        <mxCell id="wKmqKS63HdWNuwRlpOUZ-3" value="4-to-2 encoder" style="rounded=0;whiteSpace=wrap;html=1;" vertex="1" parent="1">
          <mxGeometry x="350" y="390" width="80" height="90" as="geometry" />
        </mxCell>
        <mxCell id="wKmqKS63HdWNuwRlpOUZ-4" value="4-to-2 encoder" style="rounded=0;whiteSpace=wrap;html=1;" vertex="1" parent="1">
          <mxGeometry x="350" y="550" width="80" height="90" as="geometry" />
        </mxCell>
        <mxCell id="wKmqKS63HdWNuwRlpOUZ-5" value="4-to-2 encoder" style="rounded=0;whiteSpace=wrap;html=1;" vertex="1" parent="1">
          <mxGeometry x="350" y="710" width="80" height="90" as="geometry" />
        </mxCell>
        <mxCell id="wKmqKS63HdWNuwRlpOUZ-8" style="edgeStyle=orthogonalEdgeStyle;rounded=0;orthogonalLoop=1;jettySize=auto;html=1;exitX=1;exitY=0.5;exitDx=0;exitDy=0;entryX=0;entryY=0.5;entryDx=0;entryDy=0;" edge="1" parent="1" source="wKmqKS63HdWNuwRlpOUZ-7" target="wKmqKS63HdWNuwRlpOUZ-2">
          <mxGeometry relative="1" as="geometry" />
        </mxCell>
        <mxCell id="wKmqKS63HdWNuwRlpOUZ-13" value="4" style="edgeLabel;html=1;align=center;verticalAlign=middle;resizable=0;points=[];" vertex="1" connectable="0" parent="wKmqKS63HdWNuwRlpOUZ-8">
          <mxGeometry x="0.8375" y="2" relative="1" as="geometry">
            <mxPoint as="offset" />
          </mxGeometry>
        </mxCell>
        <mxCell id="wKmqKS63HdWNuwRlpOUZ-9" style="edgeStyle=orthogonalEdgeStyle;rounded=0;orthogonalLoop=1;jettySize=auto;html=1;exitX=1;exitY=0.5;exitDx=0;exitDy=0;entryX=0;entryY=0.5;entryDx=0;entryDy=0;" edge="1" parent="1" source="wKmqKS63HdWNuwRlpOUZ-7" target="wKmqKS63HdWNuwRlpOUZ-3">
          <mxGeometry relative="1" as="geometry" />
        </mxCell>
        <mxCell id="wKmqKS63HdWNuwRlpOUZ-14" value="4" style="edgeLabel;html=1;align=center;verticalAlign=middle;resizable=0;points=[];" vertex="1" connectable="0" parent="wKmqKS63HdWNuwRlpOUZ-9">
          <mxGeometry x="0.7311" y="-2" relative="1" as="geometry">
            <mxPoint as="offset" />
          </mxGeometry>
        </mxCell>
        <mxCell id="wKmqKS63HdWNuwRlpOUZ-10" style="edgeStyle=orthogonalEdgeStyle;rounded=0;orthogonalLoop=1;jettySize=auto;html=1;exitX=1;exitY=0.5;exitDx=0;exitDy=0;entryX=0;entryY=0.5;entryDx=0;entryDy=0;" edge="1" parent="1" source="wKmqKS63HdWNuwRlpOUZ-7" target="wKmqKS63HdWNuwRlpOUZ-4">
          <mxGeometry relative="1" as="geometry" />
        </mxCell>
        <mxCell id="wKmqKS63HdWNuwRlpOUZ-15" value="4" style="edgeLabel;html=1;align=center;verticalAlign=middle;resizable=0;points=[];" vertex="1" connectable="0" parent="wKmqKS63HdWNuwRlpOUZ-10">
          <mxGeometry x="0.7671" y="-1" relative="1" as="geometry">
            <mxPoint as="offset" />
          </mxGeometry>
        </mxCell>
        <mxCell id="wKmqKS63HdWNuwRlpOUZ-11" style="edgeStyle=orthogonalEdgeStyle;rounded=0;orthogonalLoop=1;jettySize=auto;html=1;exitX=1;exitY=0.5;exitDx=0;exitDy=0;entryX=0;entryY=0.5;entryDx=0;entryDy=0;" edge="1" parent="1" source="wKmqKS63HdWNuwRlpOUZ-7" target="wKmqKS63HdWNuwRlpOUZ-5">
          <mxGeometry relative="1" as="geometry" />
        </mxCell>
        <mxCell id="wKmqKS63HdWNuwRlpOUZ-12" value="16" style="edgeLabel;html=1;align=center;verticalAlign=middle;resizable=0;points=[];" vertex="1" connectable="0" parent="wKmqKS63HdWNuwRlpOUZ-11">
          <mxGeometry x="-0.8306" y="1" relative="1" as="geometry">
            <mxPoint as="offset" />
          </mxGeometry>
        </mxCell>
        <mxCell id="wKmqKS63HdWNuwRlpOUZ-16" value="4" style="edgeLabel;html=1;align=center;verticalAlign=middle;resizable=0;points=[];" vertex="1" connectable="0" parent="wKmqKS63HdWNuwRlpOUZ-11">
          <mxGeometry x="0.8656" y="1" relative="1" as="geometry">
            <mxPoint as="offset" />
          </mxGeometry>
        </mxCell>
        <mxCell id="wKmqKS63HdWNuwRlpOUZ-7" value="Input 16 bit signal:&lt;br&gt;S[15:0]" style="rounded=1;whiteSpace=wrap;html=1;" vertex="1" parent="1">
          <mxGeometry x="50" y="480" width="120" height="60" as="geometry" />
        </mxCell>
        <mxCell id="wKmqKS63HdWNuwRlpOUZ-17" value="S[15:12]" style="text;html=1;align=center;verticalAlign=middle;resizable=0;points=[];autosize=1;strokeColor=none;fillColor=none;" vertex="1" parent="1">
          <mxGeometry x="260" y="248" width="70" height="30" as="geometry" />
        </mxCell>
        <mxCell id="wKmqKS63HdWNuwRlpOUZ-18" value="S[11:8]" style="text;html=1;align=center;verticalAlign=middle;resizable=0;points=[];autosize=1;strokeColor=none;fillColor=none;" vertex="1" parent="1">
          <mxGeometry x="260" y="409" width="60" height="30" as="geometry" />
        </mxCell>
        <mxCell id="wKmqKS63HdWNuwRlpOUZ-19" value="S[7:4]" style="text;html=1;align=center;verticalAlign=middle;resizable=0;points=[];autosize=1;strokeColor=none;fillColor=none;" vertex="1" parent="1">
          <mxGeometry x="260" y="569" width="50" height="30" as="geometry" />
        </mxCell>
        <mxCell id="wKmqKS63HdWNuwRlpOUZ-20" value="S[3:0]" style="text;html=1;align=center;verticalAlign=middle;resizable=0;points=[];autosize=1;strokeColor=none;fillColor=none;" vertex="1" parent="1">
          <mxGeometry x="260" y="728" width="50" height="30" as="geometry" />
        </mxCell>
        <mxCell id="wKmqKS63HdWNuwRlpOUZ-40" style="edgeStyle=orthogonalEdgeStyle;rounded=0;orthogonalLoop=1;jettySize=auto;html=1;entryX=0;entryY=0.5;entryDx=0;entryDy=0;" edge="1" parent="1" source="wKmqKS63HdWNuwRlpOUZ-21" target="wKmqKS63HdWNuwRlpOUZ-32">
          <mxGeometry relative="1" as="geometry" />
        </mxCell>
        <mxCell id="wKmqKS63HdWNuwRlpOUZ-21" value="r" style="text;html=1;align=center;verticalAlign=middle;resizable=0;points=[];autosize=1;strokeColor=none;fillColor=none;" vertex="1" parent="1">
          <mxGeometry x="400" y="290" width="30" height="30" as="geometry" />
        </mxCell>
        <mxCell id="wKmqKS63HdWNuwRlpOUZ-41" style="edgeStyle=orthogonalEdgeStyle;rounded=0;orthogonalLoop=1;jettySize=auto;html=1;entryX=0;entryY=0.5;entryDx=0;entryDy=0;" edge="1" parent="1" source="wKmqKS63HdWNuwRlpOUZ-24" target="wKmqKS63HdWNuwRlpOUZ-32">
          <mxGeometry relative="1" as="geometry" />
        </mxCell>
        <mxCell id="wKmqKS63HdWNuwRlpOUZ-24" value="r" style="text;html=1;align=center;verticalAlign=middle;resizable=0;points=[];autosize=1;strokeColor=none;fillColor=none;" vertex="1" parent="1">
          <mxGeometry x="400" y="450" width="30" height="30" as="geometry" />
        </mxCell>
        <mxCell id="wKmqKS63HdWNuwRlpOUZ-42" style="edgeStyle=orthogonalEdgeStyle;rounded=0;orthogonalLoop=1;jettySize=auto;html=1;entryX=0;entryY=0.5;entryDx=0;entryDy=0;" edge="1" parent="1" source="wKmqKS63HdWNuwRlpOUZ-25" target="wKmqKS63HdWNuwRlpOUZ-32">
          <mxGeometry relative="1" as="geometry" />
        </mxCell>
        <mxCell id="wKmqKS63HdWNuwRlpOUZ-25" value="r" style="text;html=1;align=center;verticalAlign=middle;resizable=0;points=[];autosize=1;strokeColor=none;fillColor=none;" vertex="1" parent="1">
          <mxGeometry x="400" y="610" width="30" height="30" as="geometry" />
        </mxCell>
        <mxCell id="wKmqKS63HdWNuwRlpOUZ-43" style="edgeStyle=orthogonalEdgeStyle;rounded=0;orthogonalLoop=1;jettySize=auto;html=1;entryX=0;entryY=0.5;entryDx=0;entryDy=0;" edge="1" parent="1" source="wKmqKS63HdWNuwRlpOUZ-26" target="wKmqKS63HdWNuwRlpOUZ-32">
          <mxGeometry relative="1" as="geometry" />
        </mxCell>
        <mxCell id="wKmqKS63HdWNuwRlpOUZ-44" value="4" style="edgeLabel;html=1;align=center;verticalAlign=middle;resizable=0;points=[];" vertex="1" connectable="0" parent="wKmqKS63HdWNuwRlpOUZ-43">
          <mxGeometry x="0.5694" y="1" relative="1" as="geometry">
            <mxPoint as="offset" />
          </mxGeometry>
        </mxCell>
        <mxCell id="wKmqKS63HdWNuwRlpOUZ-26" value="r" style="text;html=1;align=center;verticalAlign=middle;resizable=0;points=[];autosize=1;strokeColor=none;fillColor=none;" vertex="1" parent="1">
          <mxGeometry x="400" y="770" width="30" height="30" as="geometry" />
        </mxCell>
        <mxCell id="wKmqKS63HdWNuwRlpOUZ-48" style="edgeStyle=orthogonalEdgeStyle;rounded=0;orthogonalLoop=1;jettySize=auto;html=1;entryX=0.151;entryY=1.004;entryDx=0;entryDy=0;entryPerimeter=0;" edge="1" parent="1" source="wKmqKS63HdWNuwRlpOUZ-27" target="wKmqKS63HdWNuwRlpOUZ-45">
          <mxGeometry relative="1" as="geometry" />
        </mxCell>
        <mxCell id="wKmqKS63HdWNuwRlpOUZ-62" value="2" style="edgeLabel;html=1;align=center;verticalAlign=middle;resizable=0;points=[];" vertex="1" connectable="0" parent="wKmqKS63HdWNuwRlpOUZ-48">
          <mxGeometry x="0.7083" y="-1" relative="1" as="geometry">
            <mxPoint as="offset" />
          </mxGeometry>
        </mxCell>
        <mxCell id="wKmqKS63HdWNuwRlpOUZ-27" value="Z" style="text;html=1;align=center;verticalAlign=middle;resizable=0;points=[];autosize=1;strokeColor=none;fillColor=none;" vertex="1" parent="1">
          <mxGeometry x="400" y="230" width="30" height="30" as="geometry" />
        </mxCell>
        <mxCell id="wKmqKS63HdWNuwRlpOUZ-49" style="edgeStyle=orthogonalEdgeStyle;rounded=0;orthogonalLoop=1;jettySize=auto;html=1;entryX=0.406;entryY=0.994;entryDx=0;entryDy=0;entryPerimeter=0;" edge="1" parent="1" source="wKmqKS63HdWNuwRlpOUZ-29" target="wKmqKS63HdWNuwRlpOUZ-45">
          <mxGeometry relative="1" as="geometry" />
        </mxCell>
        <mxCell id="wKmqKS63HdWNuwRlpOUZ-63" value="2" style="edgeLabel;html=1;align=center;verticalAlign=middle;resizable=0;points=[];" vertex="1" connectable="0" parent="wKmqKS63HdWNuwRlpOUZ-49">
          <mxGeometry x="0.6564" y="-2" relative="1" as="geometry">
            <mxPoint as="offset" />
          </mxGeometry>
        </mxCell>
        <mxCell id="wKmqKS63HdWNuwRlpOUZ-29" value="Z" style="text;html=1;align=center;verticalAlign=middle;resizable=0;points=[];autosize=1;strokeColor=none;fillColor=none;" vertex="1" parent="1">
          <mxGeometry x="400" y="390" width="30" height="30" as="geometry" />
        </mxCell>
        <mxCell id="wKmqKS63HdWNuwRlpOUZ-52" style="edgeStyle=orthogonalEdgeStyle;rounded=0;orthogonalLoop=1;jettySize=auto;html=1;entryX=0.577;entryY=0.994;entryDx=0;entryDy=0;entryPerimeter=0;" edge="1" parent="1" source="wKmqKS63HdWNuwRlpOUZ-30" target="wKmqKS63HdWNuwRlpOUZ-45">
          <mxGeometry relative="1" as="geometry" />
        </mxCell>
        <mxCell id="wKmqKS63HdWNuwRlpOUZ-64" value="2" style="edgeLabel;html=1;align=center;verticalAlign=middle;resizable=0;points=[];" vertex="1" connectable="0" parent="wKmqKS63HdWNuwRlpOUZ-52">
          <mxGeometry x="0.7297" relative="1" as="geometry">
            <mxPoint as="offset" />
          </mxGeometry>
        </mxCell>
        <mxCell id="wKmqKS63HdWNuwRlpOUZ-30" value="Z" style="text;html=1;align=center;verticalAlign=middle;resizable=0;points=[];autosize=1;strokeColor=none;fillColor=none;" vertex="1" parent="1">
          <mxGeometry x="400" y="550" width="30" height="30" as="geometry" />
        </mxCell>
        <mxCell id="wKmqKS63HdWNuwRlpOUZ-51" style="edgeStyle=orthogonalEdgeStyle;rounded=0;orthogonalLoop=1;jettySize=auto;html=1;entryX=0.75;entryY=1;entryDx=0;entryDy=0;" edge="1" parent="1" source="wKmqKS63HdWNuwRlpOUZ-31" target="wKmqKS63HdWNuwRlpOUZ-45">
          <mxGeometry relative="1" as="geometry">
            <Array as="points">
              <mxPoint x="740" y="725" />
              <mxPoint x="740" y="435" />
            </Array>
          </mxGeometry>
        </mxCell>
        <mxCell id="wKmqKS63HdWNuwRlpOUZ-65" value="2" style="edgeLabel;html=1;align=center;verticalAlign=middle;resizable=0;points=[];" vertex="1" connectable="0" parent="wKmqKS63HdWNuwRlpOUZ-51">
          <mxGeometry x="0.8205" y="-3" relative="1" as="geometry">
            <mxPoint x="-11" y="1" as="offset" />
          </mxGeometry>
        </mxCell>
        <mxCell id="wKmqKS63HdWNuwRlpOUZ-31" value="Z" style="text;html=1;align=center;verticalAlign=middle;resizable=0;points=[];autosize=1;strokeColor=none;fillColor=none;" vertex="1" parent="1">
          <mxGeometry x="400" y="710" width="30" height="30" as="geometry" />
        </mxCell>
        <mxCell id="wKmqKS63HdWNuwRlpOUZ-32" value="4-to-2 encoder" style="rounded=0;whiteSpace=wrap;html=1;" vertex="1" parent="1">
          <mxGeometry x="780" y="720" width="80" height="90" as="geometry" />
        </mxCell>
        <mxCell id="wKmqKS63HdWNuwRlpOUZ-61" style="edgeStyle=orthogonalEdgeStyle;rounded=0;orthogonalLoop=1;jettySize=auto;html=1;" edge="1" parent="1" source="wKmqKS63HdWNuwRlpOUZ-33" target="wKmqKS63HdWNuwRlpOUZ-59">
          <mxGeometry relative="1" as="geometry" />
        </mxCell>
        <mxCell id="wKmqKS63HdWNuwRlpOUZ-33" value="r" style="text;html=1;align=center;verticalAlign=middle;resizable=0;points=[];autosize=1;strokeColor=none;fillColor=none;" vertex="1" parent="1">
          <mxGeometry x="830" y="780" width="30" height="30" as="geometry" />
        </mxCell>
        <mxCell id="wKmqKS63HdWNuwRlpOUZ-47" style="edgeStyle=orthogonalEdgeStyle;rounded=0;orthogonalLoop=1;jettySize=auto;html=1;entryX=1;entryY=0.25;entryDx=0;entryDy=0;" edge="1" parent="1" source="wKmqKS63HdWNuwRlpOUZ-34" target="wKmqKS63HdWNuwRlpOUZ-45">
          <mxGeometry relative="1" as="geometry" />
        </mxCell>
        <mxCell id="wKmqKS63HdWNuwRlpOUZ-71" value="2" style="edgeLabel;html=1;align=center;verticalAlign=middle;resizable=0;points=[];" vertex="1" connectable="0" parent="wKmqKS63HdWNuwRlpOUZ-47">
          <mxGeometry x="0.1587" y="3" relative="1" as="geometry">
            <mxPoint as="offset" />
          </mxGeometry>
        </mxCell>
        <mxCell id="wKmqKS63HdWNuwRlpOUZ-69" style="edgeStyle=orthogonalEdgeStyle;rounded=0;orthogonalLoop=1;jettySize=auto;html=1;entryX=0;entryY=0.5;entryDx=0;entryDy=0;" edge="1" parent="1" source="wKmqKS63HdWNuwRlpOUZ-34" target="wKmqKS63HdWNuwRlpOUZ-66">
          <mxGeometry relative="1" as="geometry">
            <Array as="points">
              <mxPoint x="1000" y="735" />
              <mxPoint x="1000" y="500" />
            </Array>
          </mxGeometry>
        </mxCell>
        <mxCell id="wKmqKS63HdWNuwRlpOUZ-70" value="2" style="edgeLabel;html=1;align=center;verticalAlign=middle;resizable=0;points=[];" vertex="1" connectable="0" parent="wKmqKS63HdWNuwRlpOUZ-69">
          <mxGeometry x="-0.8673" relative="1" as="geometry">
            <mxPoint as="offset" />
          </mxGeometry>
        </mxCell>
        <mxCell id="wKmqKS63HdWNuwRlpOUZ-72" value="2" style="edgeLabel;html=1;align=center;verticalAlign=middle;resizable=0;points=[];" vertex="1" connectable="0" parent="wKmqKS63HdWNuwRlpOUZ-69">
          <mxGeometry x="0.2408" y="1" relative="1" as="geometry">
            <mxPoint as="offset" />
          </mxGeometry>
        </mxCell>
        <mxCell id="wKmqKS63HdWNuwRlpOUZ-34" value="Z" style="text;html=1;align=center;verticalAlign=middle;resizable=0;points=[];autosize=1;strokeColor=none;fillColor=none;" vertex="1" parent="1">
          <mxGeometry x="830" y="720" width="30" height="30" as="geometry" />
        </mxCell>
        <mxCell id="wKmqKS63HdWNuwRlpOUZ-45" value="" style="shape=trapezoid;perimeter=trapezoidPerimeter;whiteSpace=wrap;html=1;fixedSize=1;rotation=90;" vertex="1" parent="1">
          <mxGeometry x="880" y="375" width="120" height="60" as="geometry" />
        </mxCell>
        <mxCell id="wKmqKS63HdWNuwRlpOUZ-68" value="" style="edgeStyle=orthogonalEdgeStyle;rounded=0;orthogonalLoop=1;jettySize=auto;html=1;" edge="1" parent="1" source="wKmqKS63HdWNuwRlpOUZ-46" target="wKmqKS63HdWNuwRlpOUZ-67">
          <mxGeometry relative="1" as="geometry" />
        </mxCell>
        <mxCell id="wKmqKS63HdWNuwRlpOUZ-73" value="2" style="edgeLabel;html=1;align=center;verticalAlign=middle;resizable=0;points=[];" vertex="1" connectable="0" parent="wKmqKS63HdWNuwRlpOUZ-68">
          <mxGeometry x="0.092" y="1" relative="1" as="geometry">
            <mxPoint as="offset" />
          </mxGeometry>
        </mxCell>
        <mxCell id="wKmqKS63HdWNuwRlpOUZ-46" value="4-to-1&lt;br&gt;mux" style="text;html=1;align=center;verticalAlign=middle;resizable=0;points=[];autosize=1;strokeColor=none;fillColor=none;" vertex="1" parent="1">
          <mxGeometry x="915" y="385" width="50" height="40" as="geometry" />
        </mxCell>
        <mxCell id="wKmqKS63HdWNuwRlpOUZ-59" value="if the input signal is none:&lt;br&gt;r" style="rounded=1;whiteSpace=wrap;html=1;" vertex="1" parent="1">
          <mxGeometry x="1250" y="740" width="160" height="60" as="geometry" />
        </mxCell>
        <mxCell id="wKmqKS63HdWNuwRlpOUZ-76" style="edgeStyle=orthogonalEdgeStyle;rounded=0;orthogonalLoop=1;jettySize=auto;html=1;" edge="1" parent="1" source="wKmqKS63HdWNuwRlpOUZ-66" target="wKmqKS63HdWNuwRlpOUZ-74">
          <mxGeometry relative="1" as="geometry" />
        </mxCell>
        <mxCell id="wKmqKS63HdWNuwRlpOUZ-79" value="2" style="edgeLabel;html=1;align=center;verticalAlign=middle;resizable=0;points=[];" vertex="1" connectable="0" parent="wKmqKS63HdWNuwRlpOUZ-76">
          <mxGeometry x="-0.5777" relative="1" as="geometry">
            <mxPoint as="offset" />
          </mxGeometry>
        </mxCell>
        <mxCell id="wKmqKS63HdWNuwRlpOUZ-66" value="higher bit:&lt;br&gt;Z[3:2]" style="rounded=1;whiteSpace=wrap;html=1;" vertex="1" parent="1">
          <mxGeometry x="1050" y="470" width="120" height="60" as="geometry" />
        </mxCell>
        <mxCell id="wKmqKS63HdWNuwRlpOUZ-75" style="edgeStyle=orthogonalEdgeStyle;rounded=0;orthogonalLoop=1;jettySize=auto;html=1;" edge="1" parent="1" source="wKmqKS63HdWNuwRlpOUZ-67" target="wKmqKS63HdWNuwRlpOUZ-74">
          <mxGeometry relative="1" as="geometry" />
        </mxCell>
        <mxCell id="wKmqKS63HdWNuwRlpOUZ-77" value="4" style="edgeLabel;html=1;align=center;verticalAlign=middle;resizable=0;points=[];" vertex="1" connectable="0" parent="wKmqKS63HdWNuwRlpOUZ-75">
          <mxGeometry x="0.6876" y="-1" relative="1" as="geometry">
            <mxPoint as="offset" />
          </mxGeometry>
        </mxCell>
        <mxCell id="wKmqKS63HdWNuwRlpOUZ-78" value="2" style="edgeLabel;html=1;align=center;verticalAlign=middle;resizable=0;points=[];" vertex="1" connectable="0" parent="wKmqKS63HdWNuwRlpOUZ-75">
          <mxGeometry x="-0.5847" relative="1" as="geometry">
            <mxPoint as="offset" />
          </mxGeometry>
        </mxCell>
        <mxCell id="wKmqKS63HdWNuwRlpOUZ-67" value="lower bit:&lt;br&gt;Z[1:0]" style="rounded=1;whiteSpace=wrap;html=1;" vertex="1" parent="1">
          <mxGeometry x="1050" y="375" width="120" height="60" as="geometry" />
        </mxCell>
        <mxCell id="wKmqKS63HdWNuwRlpOUZ-74" value="encoded signal:&lt;br&gt;Z[3:0]" style="rounded=1;whiteSpace=wrap;html=1;" vertex="1" parent="1">
          <mxGeometry x="1290" y="425" width="120" height="60" as="geometry" />
        </mxCell>
      </root>
    </mxGraphModel>
  </diagram>
</mxfile>
